<svg width="46" height="34" viewBox="0 0 46 34" fill="none" xmlns="http://www.w3.org/2000/svg">
<g style="mix-blend-mode:multiply">
<path d="M24 26.5C22.067 26.5 20.5 28.067 20.5 30C20.5 31.933 22.067 33.5 24 33.5V26.5ZM42 33.5H45.5V26.5H42V33.5ZM24 33.5H42V26.5H24V33.5Z" fill="#333333"/>
<path d="M13 13.5C11.067 13.5 9.5 15.067 9.5 17C9.5 18.933 11.067 20.5 13 20.5V13.5ZM31 20.5H34.5V13.5H31V20.5ZM13 20.5H31V13.5H13V20.5Z" fill="#333333"/>
<path d="M4 0.5C2.067 0.5 0.5 2.067 0.5 4C0.5 5.933 2.067 7.5 4 7.5V0.5ZM22 7.5H25.5V0.5H22V7.5ZM4 7.5H22V0.5H4V7.5Z" fill="#333333"/>
</g>
</svg>
